<svg width="1210" height="133" viewBox="0 0 1210 133" fill="none" xmlns="http://www.w3.org/2000/svg">
<rect width="1210" height="133" fill="white"/>
<path d="M65.61 71.63C65.61 73.57 65.31 74.96 64.71 75.8C64.11 76.64 63.01 77.06 61.41 77.06H43.56C42.44 77.06 41.55 76.71 40.89 76.01C40.25 75.31 39.93 74.35 39.93 73.13V36.41L40.29 36.02H64.44C64.54 36.5 64.6 36.96 64.62 37.4C64.64 37.82 64.65 38.21 64.65 38.57C64.65 38.93 64.61 39.38 64.53 39.92C64.45 40.44 64.32 40.94 64.14 41.42H49.92C49.48 41.42 48.91 41.42 48.21 41.42C47.53 41.42 46.84 41.41 46.14 41.39C46.14 42.19 46.15 42.85 46.17 43.37C46.19 43.89 46.2 44.55 46.2 45.35V53.69C46.9 53.69 47.58 53.69 48.24 53.69C48.92 53.67 49.48 53.66 49.92 53.66H61.2C61.3 54.08 61.38 54.54 61.44 55.04C61.5 55.54 61.53 55.96 61.53 56.3C61.53 56.66 61.5 57.09 61.44 57.59C61.38 58.07 61.3 58.53 61.2 58.97H49.92C49.48 58.97 48.92 58.97 48.24 58.97C47.58 58.95 46.9 58.93 46.2 58.91V68.72C46.2 69.26 46.19 69.76 46.17 70.22C46.15 70.68 46.14 71.19 46.14 71.75C46.72 71.71 47.33 71.68 47.97 71.66C48.61 71.64 49.32 71.63 50.1 71.63H65.61ZM70.6256 68.93C70.6256 66.65 71.1256 64.78 72.1256 63.32C73.1456 61.86 74.5156 60.78 76.2356 60.08C77.9756 59.36 79.9256 59 82.0856 59C82.9256 59 83.8456 59.03 84.8456 59.09C85.8656 59.13 86.8756 59.22 87.8756 59.36V57.05C87.8756 55.17 87.4456 53.82 86.5856 53C85.7256 52.18 84.5256 51.77 82.9856 51.77C81.4656 51.77 79.8956 52 78.2756 52.46C76.6756 52.9 75.0956 53.43 73.5356 54.05C73.0356 53.55 72.6156 52.87 72.2756 52.01C71.9356 51.13 71.7456 50.29 71.7056 49.49C73.4056 48.77 75.3956 48.13 77.6756 47.57C79.9756 47.01 82.1456 46.73 84.1856 46.73C87.1256 46.73 89.4956 47.55 91.2956 49.19C93.0956 50.83 93.9956 53.37 93.9956 56.81V69.11C93.9956 70.23 94.0956 71.22 94.2956 72.08C94.5156 72.92 94.9756 73.64 95.6756 74.24C95.4956 74.8 95.1856 75.4 94.7456 76.04C94.3056 76.66 93.8356 77.13 93.3356 77.45C92.0956 77.21 91.0856 76.75 90.3056 76.07C89.5456 75.39 88.9656 74.59 88.5656 73.67C87.4856 74.71 86.1856 75.66 84.6656 76.52C83.1456 77.36 81.4056 77.78 79.4456 77.78C77.4656 77.78 75.8156 77.34 74.4956 76.46C73.1956 75.58 72.2256 74.46 71.5856 73.1C70.9456 71.74 70.6256 70.35 70.6256 68.93ZM76.7756 68.51C76.7756 69.73 77.1256 70.77 77.8256 71.63C78.5256 72.47 79.5256 72.89 80.8256 72.89C81.9456 72.89 83.1356 72.58 84.3956 71.96C85.6556 71.34 86.8156 70.43 87.8756 69.23V63.56C86.9756 63.46 86.0556 63.39 85.1156 63.35C84.1956 63.31 83.3156 63.29 82.4756 63.29C80.6556 63.29 79.2456 63.75 78.2456 64.67C77.2656 65.59 76.7756 66.87 76.7756 68.51ZM103.571 42.14C103.571 40.76 103.801 39.76 104.261 39.14C104.721 38.5 105.611 38.18 106.931 38.18H109.271L109.631 38.57V47.42L117.071 47.33C117.251 48.11 117.341 48.86 117.341 49.58C117.341 50.4 117.251 51.17 117.071 51.89L109.631 51.8V69.74C109.631 70.54 109.821 71.18 110.201 71.66C110.581 72.12 111.221 72.35 112.121 72.35H116.231C116.571 73.27 116.741 74.31 116.741 75.47C116.741 75.71 116.731 75.95 116.711 76.19C116.711 76.41 116.681 76.62 116.621 76.82C115.621 76.94 114.551 77.04 113.411 77.12C112.271 77.22 111.111 77.27 109.931 77.27C105.691 77.27 103.571 75.21 103.571 71.09V51.83L99.1913 51.89C99.0113 51.17 98.9213 50.4 98.9213 49.58C98.9213 48.86 99.0113 48.11 99.1913 47.33L103.571 47.39V42.14ZM119.973 74.81C119.993 74.11 120.203 73.33 120.603 72.47C121.003 71.61 121.473 70.94 122.013 70.46C123.273 71.16 124.623 71.78 126.063 72.32C127.503 72.86 128.963 73.13 130.443 73.13C132.083 73.13 133.373 72.78 134.313 72.08C135.273 71.38 135.763 70.48 135.783 69.38C135.783 67.58 134.533 66.22 132.033 65.3L128.553 64.01C126.473 63.25 124.683 62.2 123.183 60.86C121.683 59.52 120.933 57.72 120.933 55.46C120.933 53.62 121.393 52.04 122.313 50.72C123.253 49.4 124.523 48.39 126.123 47.69C127.723 46.97 129.533 46.61 131.553 46.61C133.173 46.61 134.893 46.82 136.713 47.24C138.553 47.66 140.093 48.17 141.333 48.77C141.353 49.53 141.193 50.36 140.853 51.26C140.513 52.16 140.073 52.84 139.533 53.3C138.473 52.84 137.243 52.4 135.843 51.98C134.443 51.56 133.003 51.35 131.523 51.35C130.203 51.35 129.143 51.67 128.343 52.31C127.563 52.93 127.173 53.77 127.173 54.83C127.173 55.67 127.473 56.37 128.073 56.93C128.693 57.49 129.633 58 130.893 58.46L134.583 59.81C136.823 60.63 138.653 61.77 140.073 63.23C141.493 64.67 142.203 66.54 142.203 68.84C142.203 71.62 141.123 73.81 138.963 75.41C136.823 76.99 133.983 77.78 130.443 77.78C128.323 77.78 126.373 77.48 124.593 76.88C122.813 76.28 121.273 75.59 119.973 74.81Z" fill="#009CBF"/>
<path d="M47.211 92.324C47.211 93.152 46.989 93.854 46.545 94.43C46.101 95 45.552 95.39 44.898 95.6C45.198 95.708 45.453 95.903 45.663 96.185C45.879 96.461 46.05 96.776 46.176 97.13L46.968 99.236C47.1 99.59 47.226 99.863 47.346 100.055C47.472 100.247 47.616 100.406 47.778 100.532C47.652 100.724 47.463 100.871 47.211 100.973C46.965 101.075 46.722 101.126 46.482 101.126C46.122 101.126 45.858 101.027 45.69 100.829C45.522 100.631 45.366 100.34 45.222 99.956L44.322 97.517C44.172 97.103 43.971 96.758 43.719 96.482C43.467 96.2 43.062 96.059 42.504 96.059H41.037V101C40.887 101.03 40.725 101.048 40.551 101.054C40.383 101.066 40.224 101.072 40.074 101.072C39.936 101.072 39.777 101.066 39.597 101.054C39.423 101.048 39.267 101.03 39.129 101V88.805L39.246 88.697C39.924 88.685 40.587 88.673 41.235 88.661C41.883 88.643 42.513 88.634 43.125 88.634C44.373 88.634 45.366 88.949 46.104 89.579C46.842 90.209 47.211 91.124 47.211 92.324ZM41.037 90.137V94.529C41.385 94.517 41.742 94.508 42.108 94.502C42.474 94.496 42.78 94.493 43.026 94.493C43.614 94.493 44.067 94.385 44.385 94.169C44.703 93.953 44.922 93.68 45.042 93.35C45.162 93.014 45.222 92.672 45.222 92.324C45.222 91.958 45.162 91.61 45.042 91.28C44.922 90.95 44.703 90.68 44.385 90.47C44.067 90.26 43.614 90.155 43.026 90.155C42.768 90.155 42.447 90.155 42.063 90.155C41.685 90.149 41.343 90.143 41.037 90.137ZM57.6435 99.389C57.6435 99.971 57.5535 100.388 57.3735 100.64C57.1935 100.892 56.8635 101.018 56.3835 101.018H51.0285C50.6925 101.018 50.4255 100.913 50.2275 100.703C50.0355 100.493 49.9395 100.205 49.9395 99.839V88.823L50.0475 88.706H57.2925C57.3225 88.85 57.3405 88.988 57.3465 89.12C57.3525 89.246 57.3555 89.363 57.3555 89.471C57.3555 89.579 57.3435 89.714 57.3195 89.876C57.2955 90.032 57.2565 90.182 57.2025 90.326H52.9365C52.8045 90.326 52.6335 90.326 52.4235 90.326C52.2195 90.326 52.0125 90.323 51.8025 90.317C51.8025 90.557 51.8055 90.755 51.8115 90.911C51.8175 91.067 51.8205 91.265 51.8205 91.505V94.007C52.0305 94.007 52.2345 94.007 52.4325 94.007C52.6365 94.001 52.8045 93.998 52.9365 93.998H56.3205C56.3505 94.124 56.3745 94.262 56.3925 94.412C56.4105 94.562 56.4195 94.688 56.4195 94.79C56.4195 94.898 56.4105 95.027 56.3925 95.177C56.3745 95.321 56.3505 95.459 56.3205 95.591H52.9365C52.8045 95.591 52.6365 95.591 52.4325 95.591C52.2345 95.585 52.0305 95.579 51.8205 95.573V98.516C51.8205 98.678 51.8175 98.828 51.8115 98.966C51.8055 99.104 51.8025 99.257 51.8025 99.425C51.9765 99.413 52.1595 99.404 52.3515 99.398C52.5435 99.392 52.7565 99.389 52.9905 99.389H57.6435ZM59.0549 99.893C59.0789 99.611 59.1689 99.335 59.3249 99.065C59.4869 98.789 59.6639 98.573 59.8559 98.417C60.3779 98.759 60.9569 99.047 61.5929 99.281C62.2289 99.515 62.8559 99.632 63.4739 99.632C64.1999 99.632 64.7639 99.476 65.1659 99.164C65.5679 98.846 65.7689 98.438 65.7689 97.94C65.7689 97.52 65.6279 97.148 65.3459 96.824C65.0639 96.494 64.6589 96.218 64.1309 95.996L61.9619 95.087C61.1999 94.769 60.5939 94.361 60.1439 93.863C59.6999 93.359 59.4779 92.723 59.4779 91.955C59.4779 91.301 59.6489 90.713 59.9909 90.191C60.3389 89.663 60.8189 89.246 61.4309 88.94C62.0429 88.628 62.7509 88.472 63.5549 88.472C64.3049 88.472 65.0099 88.568 65.6699 88.76C66.3299 88.952 66.8939 89.165 67.3619 89.399C67.3559 89.675 67.2869 89.951 67.1549 90.227C67.0289 90.497 66.8669 90.722 66.6689 90.902C66.1949 90.668 65.6789 90.47 65.1209 90.308C64.5629 90.14 64.0529 90.056 63.5909 90.056C62.9189 90.056 62.3909 90.218 62.0069 90.542C61.6289 90.866 61.4399 91.265 61.4399 91.739C61.4399 92.135 61.5779 92.459 61.8539 92.711C62.1299 92.963 62.4899 93.182 62.9339 93.368L65.0849 94.259C65.8529 94.577 66.4919 95.015 67.0019 95.573C67.5179 96.131 67.7759 96.815 67.7759 97.625C67.7759 98.315 67.6139 98.933 67.2899 99.479C66.9719 100.019 66.4859 100.448 65.8319 100.766C65.1779 101.078 64.3559 101.234 63.3659 101.234C62.6159 101.234 61.8599 101.114 61.0979 100.874C60.3359 100.634 59.6549 100.307 59.0549 99.893ZM71.5252 91.631C71.5252 91.391 71.5252 91.172 71.5252 90.974C71.5252 90.776 71.5252 90.551 71.5252 90.299C71.3992 90.299 71.2252 90.302 71.0032 90.308C70.7812 90.314 70.6072 90.317 70.4812 90.317H68.3482C68.3182 90.179 68.2972 90.041 68.2852 89.903C68.2732 89.765 68.2672 89.636 68.2672 89.516C68.2672 89.396 68.2732 89.267 68.2852 89.129C68.2972 88.991 68.3182 88.85 68.3482 88.706H76.6192C76.6912 88.94 76.7272 89.192 76.7272 89.462C76.7272 89.774 76.6402 89.996 76.4662 90.128C76.2922 90.254 76.0222 90.317 75.6562 90.317H74.4772C74.3572 90.317 74.1832 90.314 73.9552 90.308C73.7332 90.302 73.5622 90.299 73.4422 90.299H73.4332C73.4332 90.551 73.4332 90.776 73.4332 90.974C73.4392 91.172 73.4422 91.391 73.4422 91.631V101C73.2862 101.03 73.1212 101.048 72.9472 101.054C72.7792 101.066 72.6232 101.072 72.4792 101.072C72.3352 101.072 72.1762 101.066 72.0022 101.054C71.8342 101.048 71.6752 101.03 71.5252 101V91.631ZM79.9612 98.03C79.8952 98.03 79.7422 98.03 79.5022 98.03C79.2682 98.024 79.0732 98.018 78.9172 98.012L77.9632 101.018C77.8432 101.048 77.7112 101.066 77.5672 101.072C77.4232 101.084 77.2792 101.09 77.1352 101.09C76.7812 101.09 76.4692 101.048 76.1992 100.964L76.1452 100.874L80.2042 88.706C80.3542 88.682 80.5372 88.664 80.7532 88.652C80.9692 88.64 81.1582 88.634 81.3202 88.634C81.4702 88.634 81.6532 88.64 81.8692 88.652C82.0852 88.664 82.2592 88.685 82.3912 88.715L86.4322 100.883C86.2942 100.967 86.1232 101.027 85.9192 101.063C85.7212 101.105 85.5202 101.126 85.3162 101.126C85.0102 101.126 84.7732 101.057 84.6052 100.919C84.4372 100.781 84.2932 100.511 84.1732 100.109L83.5072 98.012C83.3512 98.018 83.1502 98.024 82.9042 98.03C82.6582 98.03 82.5022 98.03 82.4362 98.03H79.9612ZM80.4472 93.206L79.4122 96.455C79.5502 96.455 79.7182 96.452 79.9162 96.446C80.1202 96.44 80.2582 96.437 80.3302 96.437H82.1212C82.1872 96.437 82.3132 96.44 82.4992 96.446C82.6912 96.446 82.8622 96.449 83.0122 96.455L82.1842 93.854C82.0222 93.332 81.8542 92.78 81.6802 92.198C81.5122 91.61 81.3682 91.079 81.2482 90.605H81.1492C81.0592 91.007 80.9422 91.46 80.7982 91.964C80.6602 92.462 80.5432 92.876 80.4472 93.206ZM97.0211 96.68C97.0211 98.168 96.6071 99.299 95.7791 100.073C94.9511 100.847 93.8471 101.234 92.4671 101.234C91.0931 101.234 89.9921 100.847 89.1641 100.073C88.3421 99.299 87.9311 98.168 87.9311 96.68V88.742L88.0481 88.625H88.7771C89.1671 88.625 89.4431 88.724 89.6051 88.922C89.7671 89.12 89.8481 89.432 89.8481 89.858V96.68C89.8481 98.684 90.7241 99.686 92.4761 99.686C94.2281 99.686 95.1041 98.684 95.1041 96.68V88.706C95.2481 88.676 95.4011 88.658 95.5631 88.652C95.7311 88.64 95.8901 88.634 96.0401 88.634C96.1841 88.634 96.3461 88.64 96.5261 88.652C96.7121 88.658 96.8771 88.676 97.0211 88.706V96.68ZM108.207 92.324C108.207 93.152 107.985 93.854 107.541 94.43C107.097 95 106.548 95.39 105.894 95.6C106.194 95.708 106.449 95.903 106.659 96.185C106.875 96.461 107.046 96.776 107.172 97.13L107.964 99.236C108.096 99.59 108.222 99.863 108.342 100.055C108.468 100.247 108.612 100.406 108.774 100.532C108.648 100.724 108.459 100.871 108.207 100.973C107.961 101.075 107.718 101.126 107.478 101.126C107.118 101.126 106.854 101.027 106.686 100.829C106.518 100.631 106.362 100.34 106.218 99.956L105.318 97.517C105.168 97.103 104.967 96.758 104.715 96.482C104.463 96.2 104.058 96.059 103.5 96.059H102.033V101C101.883 101.03 101.721 101.048 101.547 101.054C101.379 101.066 101.22 101.072 101.07 101.072C100.932 101.072 100.773 101.066 100.593 101.054C100.419 101.048 100.263 101.03 100.125 101V88.805L100.242 88.697C100.92 88.685 101.583 88.673 102.231 88.661C102.879 88.643 103.509 88.634 104.121 88.634C105.369 88.634 106.362 88.949 107.1 89.579C107.838 90.209 108.207 91.124 108.207 92.324ZM102.033 90.137V94.529C102.381 94.517 102.738 94.508 103.104 94.502C103.47 94.496 103.776 94.493 104.022 94.493C104.61 94.493 105.063 94.385 105.381 94.169C105.699 93.953 105.918 93.68 106.038 93.35C106.158 93.014 106.218 92.672 106.218 92.324C106.218 91.958 106.158 91.61 106.038 91.28C105.918 90.95 105.699 90.68 105.381 90.47C105.063 90.26 104.61 90.155 104.022 90.155C103.764 90.155 103.443 90.155 103.059 90.155C102.681 90.149 102.339 90.143 102.033 90.137ZM113.483 98.03C113.417 98.03 113.264 98.03 113.024 98.03C112.79 98.024 112.595 98.018 112.439 98.012L111.485 101.018C111.365 101.048 111.233 101.066 111.089 101.072C110.945 101.084 110.801 101.09 110.657 101.09C110.303 101.09 109.991 101.048 109.721 100.964L109.667 100.874L113.726 88.706C113.876 88.682 114.059 88.664 114.275 88.652C114.491 88.64 114.68 88.634 114.842 88.634C114.992 88.634 115.175 88.64 115.391 88.652C115.607 88.664 115.781 88.685 115.913 88.715L119.954 100.883C119.816 100.967 119.645 101.027 119.441 101.063C119.243 101.105 119.042 101.126 118.838 101.126C118.532 101.126 118.295 101.057 118.127 100.919C117.959 100.781 117.815 100.511 117.695 100.109L117.029 98.012C116.873 98.018 116.672 98.024 116.426 98.03C116.18 98.03 116.024 98.03 115.958 98.03H113.483ZM113.969 93.206L112.934 96.455C113.072 96.455 113.24 96.452 113.438 96.446C113.642 96.44 113.78 96.437 113.852 96.437H115.643C115.709 96.437 115.835 96.44 116.021 96.446C116.213 96.446 116.384 96.449 116.534 96.455L115.706 93.854C115.544 93.332 115.376 92.78 115.202 92.198C115.034 91.61 114.89 91.079 114.77 90.605H114.671C114.581 91.007 114.464 91.46 114.32 91.964C114.182 92.462 114.065 92.876 113.969 93.206ZM124.784 93.449C124.562 93.005 124.355 92.573 124.163 92.153C123.977 91.733 123.8 91.334 123.632 90.956L123.569 90.965C123.593 91.385 123.617 91.853 123.641 92.369C123.665 92.879 123.683 93.398 123.695 93.926C123.713 94.448 123.722 94.931 123.722 95.375V101C123.56 101.03 123.404 101.048 123.254 101.054C123.104 101.066 122.966 101.072 122.84 101.072C122.72 101.072 122.579 101.066 122.417 101.054C122.255 101.048 122.096 101.03 121.94 101V88.724C122.096 88.694 122.288 88.673 122.516 88.661C122.75 88.643 122.939 88.634 123.083 88.634C123.233 88.634 123.413 88.64 123.623 88.652C123.839 88.658 124.04 88.676 124.226 88.706L128.033 96.248C128.261 96.722 128.474 97.184 128.672 97.634C128.876 98.078 129.065 98.483 129.239 98.849L129.302 98.84C129.266 98.36 129.236 97.85 129.212 97.31C129.194 96.764 129.179 96.233 129.167 95.717C129.155 95.195 129.149 94.727 129.149 94.313V89.822C129.149 89.402 129.221 89.099 129.365 88.913C129.515 88.721 129.788 88.625 130.184 88.625H130.805L130.922 88.733V100.982C130.766 101.012 130.577 101.033 130.355 101.045C130.133 101.063 129.935 101.072 129.761 101.072C129.581 101.072 129.392 101.066 129.194 101.054C128.996 101.048 128.801 101.03 128.609 101L124.784 93.449ZM136.037 91.631C136.037 91.391 136.037 91.172 136.037 90.974C136.037 90.776 136.037 90.551 136.037 90.299C135.911 90.299 135.737 90.302 135.515 90.308C135.293 90.314 135.119 90.317 134.993 90.317H132.86C132.83 90.179 132.809 90.041 132.797 89.903C132.785 89.765 132.779 89.636 132.779 89.516C132.779 89.396 132.785 89.267 132.797 89.129C132.809 88.991 132.83 88.85 132.86 88.706H141.131C141.203 88.94 141.239 89.192 141.239 89.462C141.239 89.774 141.152 89.996 140.978 90.128C140.804 90.254 140.534 90.317 140.168 90.317H138.989C138.869 90.317 138.695 90.314 138.467 90.308C138.245 90.302 138.074 90.299 137.954 90.299H137.945C137.945 90.551 137.945 90.776 137.945 90.974C137.951 91.172 137.954 91.391 137.954 91.631V101C137.798 101.03 137.633 101.048 137.459 101.054C137.291 101.066 137.135 101.072 136.991 101.072C136.847 101.072 136.688 101.066 136.514 101.054C136.346 101.048 136.187 101.03 136.037 101V91.631Z" fill="black"/>
<path d="M19.5 61C22.2614 61 24.5 58.7614 24.5 56C24.5 53.2386 22.2614 51 19.5 51C16.7386 51 14.5 53.2386 14.5 56C14.5 58.7614 16.7386 61 19.5 61Z" fill="#E78200"/>
<path d="M159.5 61C162.261 61 164.5 58.7614 164.5 56C164.5 53.2386 162.261 51 159.5 51C156.739 51 154.5 53.2386 154.5 56C154.5 58.7614 156.739 61 159.5 61Z" fill="#E78200"/>
<path d="M1017.97 65.1582C1017.91 66.0762 1017.57 66.7988 1016.95 67.3262C1016.34 67.8535 1015.54 68.1172 1014.54 68.1172C1013.44 68.1172 1012.58 67.75 1011.95 67.0156C1011.33 66.2773 1011.02 65.2656 1011.02 63.9805V63.459C1011.02 62.6387 1011.16 61.916 1011.45 61.291C1011.74 60.666 1012.15 60.1875 1012.69 59.8555C1013.23 59.5195 1013.85 59.3516 1014.56 59.3516C1015.55 59.3516 1016.34 59.6152 1016.94 60.1426C1017.54 60.6699 1017.89 61.4102 1017.98 62.3633H1016.23C1016.18 61.8125 1016.03 61.4141 1015.76 61.168C1015.5 60.918 1015.1 60.793 1014.56 60.793C1013.98 60.793 1013.54 61.0039 1013.24 61.4258C1012.95 61.8438 1012.81 62.4941 1012.8 63.377V64.0215C1012.8 64.9434 1012.94 65.6172 1013.21 66.043C1013.5 66.4688 1013.94 66.6816 1014.54 66.6816C1015.08 66.6816 1015.49 66.5586 1015.75 66.3125C1016.02 66.0625 1016.18 65.6777 1016.21 65.1582H1017.97ZM1018.85 64.7715C1018.85 64.1426 1018.97 63.582 1019.21 63.0898C1019.46 62.5977 1019.8 62.2168 1020.26 61.9473C1020.71 61.6777 1021.24 61.543 1021.85 61.543C1022.7 61.543 1023.4 61.8047 1023.94 62.3281C1024.48 62.8516 1024.78 63.5625 1024.85 64.4609L1024.86 64.8945C1024.86 65.8672 1024.59 66.6484 1024.04 67.2383C1023.5 67.8242 1022.77 68.1172 1021.86 68.1172C1020.94 68.1172 1020.21 67.8242 1019.67 67.2383C1019.12 66.6523 1018.85 65.8555 1018.85 64.8477V64.7715ZM1020.54 64.8945C1020.54 65.4961 1020.66 65.957 1020.88 66.2773C1021.11 66.5938 1021.44 66.752 1021.86 66.752C1022.27 66.752 1022.59 66.5957 1022.82 66.2832C1023.05 65.9668 1023.16 65.4629 1023.16 64.7715C1023.16 64.1816 1023.05 63.7246 1022.82 63.4004C1022.59 63.0762 1022.26 62.9141 1021.85 62.9141C1021.43 62.9141 1021.11 63.0762 1020.88 63.4004C1020.66 63.7207 1020.54 64.2188 1020.54 64.8945ZM1031.71 64.8887C1031.71 65.8652 1031.48 66.6484 1031.04 67.2383C1030.6 67.8242 1030 68.1172 1029.25 68.1172C1028.61 68.1172 1028.09 67.8945 1027.69 67.4492V70.4375H1026V61.6602H1027.57L1027.63 62.2812C1028.04 61.7891 1028.57 61.543 1029.23 61.543C1030.02 61.543 1030.62 61.832 1031.06 62.4102C1031.49 62.9883 1031.71 63.7852 1031.71 64.8008V64.8887ZM1030.01 64.7656C1030.01 64.1758 1029.91 63.7207 1029.7 63.4004C1029.49 63.0801 1029.19 62.9199 1028.79 62.9199C1028.26 62.9199 1027.89 63.123 1027.69 63.5293V66.125C1027.9 66.543 1028.27 66.752 1028.8 66.752C1029.61 66.752 1030.01 66.0898 1030.01 64.7656ZM1035.16 65.6035L1036.33 61.6602H1038.15L1035.6 68.9844L1035.46 69.3184C1035.08 70.1465 1034.45 70.5605 1033.58 70.5605C1033.34 70.5605 1033.09 70.5234 1032.83 70.4492V69.166L1033.09 69.1719C1033.41 69.1719 1033.65 69.123 1033.81 69.0254C1033.97 68.9277 1034.09 68.7656 1034.18 68.5391L1034.38 68.0176L1032.16 61.6602H1033.98L1035.16 65.6035ZM1044.43 65.6973L1045.26 61.6602H1046.9L1045.28 68H1043.86L1042.66 64.0098L1041.46 68H1040.05L1038.43 61.6602H1040.06L1040.89 65.6914L1042.05 61.6602H1043.27L1044.43 65.6973ZM1051.4 63.248C1051.17 63.2168 1050.97 63.2012 1050.79 63.2012C1050.15 63.2012 1049.73 63.418 1049.53 63.8516V68H1047.84V61.6602H1049.44L1049.49 62.416C1049.83 61.834 1050.3 61.543 1050.9 61.543C1051.09 61.543 1051.26 61.5684 1051.43 61.6191L1051.4 63.248ZM1054.11 68H1052.41V61.6602H1054.11V68ZM1052.31 60.0195C1052.31 59.7656 1052.39 59.5566 1052.56 59.3926C1052.73 59.2285 1052.97 59.1465 1053.26 59.1465C1053.55 59.1465 1053.78 59.2285 1053.95 59.3926C1054.12 59.5566 1054.21 59.7656 1054.21 60.0195C1054.21 60.2773 1054.12 60.4883 1053.95 60.6523C1053.77 60.8164 1053.54 60.8984 1053.26 60.8984C1052.97 60.8984 1052.74 60.8164 1052.57 60.6523C1052.4 60.4883 1052.31 60.2773 1052.31 60.0195ZM1055.36 64.7832C1055.36 63.8105 1055.59 63.0273 1056.06 62.4336C1056.52 61.8398 1057.14 61.543 1057.93 61.543C1058.63 61.543 1059.17 61.7812 1059.55 62.2578L1059.62 61.6602H1061.16V67.7891C1061.16 68.3438 1061.03 68.8262 1060.78 69.2363C1060.53 69.6465 1060.17 69.959 1059.72 70.1738C1059.26 70.3887 1058.72 70.4961 1058.11 70.4961C1057.65 70.4961 1057.19 70.4023 1056.75 70.2148C1056.31 70.0312 1055.98 69.793 1055.75 69.5L1056.5 68.4688C1056.92 68.9414 1057.43 69.1777 1058.04 69.1777C1058.48 69.1777 1058.83 69.0566 1059.08 68.8145C1059.33 68.5762 1059.46 68.2363 1059.46 67.7949V67.4551C1059.07 67.8965 1058.56 68.1172 1057.92 68.1172C1057.16 68.1172 1056.54 67.8203 1056.07 67.2266C1055.6 66.6289 1055.36 65.8379 1055.36 64.8535V64.7832ZM1057.06 64.9062C1057.06 65.4805 1057.17 65.9316 1057.4 66.2598C1057.63 66.584 1057.95 66.7461 1058.35 66.7461C1058.87 66.7461 1059.24 66.5527 1059.46 66.166V63.5C1059.23 63.1133 1058.87 62.9199 1058.36 62.9199C1057.96 62.9199 1057.64 63.0859 1057.4 63.418C1057.17 63.75 1057.06 64.2461 1057.06 64.9062ZM1064.22 62.3516C1064.67 61.8125 1065.23 61.543 1065.91 61.543C1067.29 61.543 1067.98 62.3418 1068 63.9395V68H1066.31V63.9863C1066.31 63.623 1066.23 63.3555 1066.07 63.1836C1065.92 63.0078 1065.66 62.9199 1065.3 62.9199C1064.8 62.9199 1064.44 63.1113 1064.22 63.4941V68H1062.52V59H1064.22V62.3516ZM1071.41 60.1016V61.6602H1072.49V62.9023H1071.41V66.0664C1071.41 66.3008 1071.45 66.4688 1071.54 66.5703C1071.63 66.6719 1071.8 66.7227 1072.06 66.7227C1072.25 66.7227 1072.41 66.709 1072.56 66.6816V67.9648C1072.22 68.0664 1071.88 68.1172 1071.53 68.1172C1070.34 68.1172 1069.74 67.5176 1069.71 66.3184V62.9023H1068.79V61.6602H1069.71V60.1016H1071.41ZM1082.4 68H1076.55V66.8398L1079.31 63.8984C1079.69 63.4844 1079.97 63.123 1080.15 62.8145C1080.33 62.5059 1080.43 62.2129 1080.43 61.9355C1080.43 61.5566 1080.33 61.2598 1080.14 61.0449C1079.95 60.8262 1079.67 60.7168 1079.32 60.7168C1078.94 60.7168 1078.63 60.8496 1078.41 61.1152C1078.19 61.377 1078.08 61.7227 1078.08 62.1523H1076.38C1076.38 61.6328 1076.51 61.1582 1076.75 60.7285C1077 60.2988 1077.35 59.9629 1077.81 59.7207C1078.26 59.4746 1078.77 59.3516 1079.35 59.3516C1080.23 59.3516 1080.91 59.5625 1081.39 59.9844C1081.88 60.4062 1082.12 61.002 1082.12 61.7715C1082.12 62.1934 1082.02 62.623 1081.8 63.0605C1081.58 63.498 1081.2 64.0078 1080.67 64.5898L1078.73 66.6348H1082.4V68ZM1089.29 64.4727C1089.29 65.6523 1089.04 66.5547 1088.55 67.1797C1088.06 67.8047 1087.35 68.1172 1086.41 68.1172C1085.48 68.1172 1084.77 67.8105 1084.28 67.1973C1083.78 66.584 1083.53 65.7051 1083.52 64.5605V62.9902C1083.52 61.7988 1083.77 60.8945 1084.26 60.2773C1084.75 59.6602 1085.47 59.3516 1086.4 59.3516C1087.33 59.3516 1088.04 59.6582 1088.53 60.2715C1089.02 60.8809 1089.27 61.7578 1089.29 62.9023V64.4727ZM1087.59 62.75C1087.59 62.043 1087.49 61.5293 1087.3 61.209C1087.11 60.8848 1086.81 60.7227 1086.4 60.7227C1086 60.7227 1085.7 60.877 1085.51 61.1855C1085.32 61.4902 1085.22 61.9688 1085.21 62.6211V64.6953C1085.21 65.3906 1085.31 65.9082 1085.49 66.248C1085.69 66.584 1085.99 66.752 1086.41 66.752C1086.82 66.752 1087.12 66.5898 1087.31 66.2656C1087.49 65.9414 1087.58 65.4453 1087.59 64.7773V62.75ZM1096.38 68H1090.53V66.8398L1093.29 63.8984C1093.67 63.4844 1093.95 63.123 1094.13 62.8145C1094.32 62.5059 1094.41 62.2129 1094.41 61.9355C1094.41 61.5566 1094.31 61.2598 1094.12 61.0449C1093.93 60.8262 1093.66 60.7168 1093.3 60.7168C1092.92 60.7168 1092.61 60.8496 1092.39 61.1152C1092.17 61.377 1092.06 61.7227 1092.06 62.1523H1090.36C1090.36 61.6328 1090.49 61.1582 1090.73 60.7285C1090.98 60.2988 1091.33 59.9629 1091.79 59.7207C1092.24 59.4746 1092.75 59.3516 1093.33 59.3516C1094.21 59.3516 1094.89 59.5625 1095.37 59.9844C1095.86 60.4062 1096.11 61.002 1096.11 61.7715C1096.11 62.1934 1096 62.623 1095.78 63.0605C1095.56 63.498 1095.18 64.0078 1094.65 64.5898L1092.71 66.6348H1096.38V68ZM1103.27 64.4727C1103.27 65.6523 1103.02 66.5547 1102.53 67.1797C1102.05 67.8047 1101.33 68.1172 1100.39 68.1172C1099.46 68.1172 1098.75 67.8105 1098.26 67.1973C1097.76 66.584 1097.51 65.7051 1097.5 64.5605V62.9902C1097.5 61.7988 1097.75 60.8945 1098.24 60.2773C1098.74 59.6602 1099.45 59.3516 1100.38 59.3516C1101.31 59.3516 1102.02 59.6582 1102.51 60.2715C1103 60.8809 1103.26 61.7578 1103.27 62.9023V64.4727ZM1101.57 62.75C1101.57 62.043 1101.48 61.5293 1101.28 61.209C1101.09 60.8848 1100.79 60.7227 1100.38 60.7227C1099.98 60.7227 1099.68 60.877 1099.49 61.1855C1099.31 61.4902 1099.21 61.9688 1099.19 62.6211V64.6953C1099.19 65.3906 1099.29 65.9082 1099.48 66.248C1099.67 66.584 1099.97 66.752 1100.39 66.752C1100.8 66.752 1101.1 66.5898 1101.29 66.2656C1101.47 65.9414 1101.57 65.4453 1101.57 64.7773V62.75ZM1107.79 68V59.4688H1110.77C1111.81 59.4688 1112.59 59.668 1113.13 60.0664C1113.66 60.4609 1113.93 61.041 1113.93 61.8066C1113.93 62.2246 1113.82 62.5938 1113.61 62.9141C1113.39 63.2305 1113.1 63.4629 1112.71 63.6113C1113.15 63.7207 1113.49 63.9414 1113.74 64.2734C1114 64.6055 1114.12 65.0117 1114.12 65.4922C1114.12 66.3125 1113.86 66.9336 1113.34 67.3555C1112.82 67.7773 1112.07 67.9922 1111.1 68H1107.79ZM1109.54 64.2852V66.5879H1111.05C1111.46 66.5879 1111.79 66.4902 1112.02 66.2949C1112.25 66.0957 1112.37 65.8223 1112.37 65.4746C1112.37 64.6934 1111.96 64.2969 1111.15 64.2852H1109.54ZM1109.54 63.043H1110.84C1111.73 63.0273 1112.17 62.6738 1112.17 61.9824C1112.17 61.5957 1112.06 61.3184 1111.83 61.1504C1111.61 60.9785 1111.26 60.8926 1110.77 60.8926H1109.54V63.043ZM1118.36 68.1172C1117.43 68.1172 1116.67 67.832 1116.08 67.2617C1115.5 66.6914 1115.21 65.9316 1115.21 64.9824V64.8184C1115.21 64.1816 1115.33 63.6133 1115.58 63.1133C1115.82 62.6094 1116.17 62.2227 1116.62 61.9531C1117.07 61.6797 1117.59 61.543 1118.17 61.543C1119.04 61.543 1119.72 61.8164 1120.21 62.3633C1120.71 62.9102 1120.96 63.6855 1120.96 64.6895V65.3809H1116.93C1116.98 65.7949 1117.14 66.127 1117.42 66.377C1117.7 66.627 1118.05 66.752 1118.47 66.752C1119.12 66.752 1119.63 66.5156 1120 66.043L1120.83 66.9746C1120.57 67.334 1120.23 67.6152 1119.8 67.8184C1119.36 68.0176 1118.88 68.1172 1118.36 68.1172ZM1118.16 62.9141C1117.83 62.9141 1117.55 63.0273 1117.34 63.2539C1117.14 63.4805 1117 63.8047 1116.94 64.2266H1119.3V64.0918C1119.29 63.7168 1119.19 63.4277 1118.99 63.2246C1118.8 63.0176 1118.52 62.9141 1118.16 62.9141ZM1123.82 68H1122.12V59H1123.82V68ZM1127.1 68H1125.41V59H1127.1V68ZM1132.28 68C1132.2 67.8477 1132.14 67.6582 1132.11 67.4316C1131.7 67.8887 1131.17 68.1172 1130.51 68.1172C1129.89 68.1172 1129.37 67.9375 1128.96 67.5781C1128.56 67.2188 1128.35 66.7656 1128.35 66.2188C1128.35 65.5469 1128.6 65.0312 1129.1 64.6719C1129.6 64.3125 1130.32 64.1309 1131.26 64.127H1132.04V63.7637C1132.04 63.4707 1131.96 63.2363 1131.81 63.0605C1131.66 62.8848 1131.43 62.7969 1131.1 62.7969C1130.82 62.7969 1130.59 62.8652 1130.43 63.002C1130.27 63.1387 1130.19 63.3262 1130.19 63.5645H1128.49C1128.49 63.1973 1128.61 62.8574 1128.83 62.5449C1129.06 62.2324 1129.38 61.9883 1129.79 61.8125C1130.21 61.6328 1130.67 61.543 1131.19 61.543C1131.97 61.543 1132.59 61.7402 1133.05 62.1348C1133.51 62.5254 1133.74 63.0762 1133.74 63.7871V66.5352C1133.74 67.1367 1133.83 67.5918 1133.99 67.9004V68H1132.28ZM1130.88 66.8223C1131.13 66.8223 1131.36 66.7676 1131.57 66.6582C1131.78 66.5449 1131.94 66.3945 1132.04 66.207V65.1172H1131.41C1130.56 65.1172 1130.11 65.4102 1130.05 65.9961L1130.05 66.0957C1130.05 66.3066 1130.12 66.4805 1130.27 66.6172C1130.42 66.7539 1130.62 66.8223 1130.88 66.8223ZM1145.35 63.9277C1145.35 64.7676 1145.2 65.5039 1144.9 66.1367C1144.6 66.7695 1144.18 67.2578 1143.62 67.6016C1143.07 67.9453 1142.44 68.1172 1141.72 68.1172C1141.02 68.1172 1140.39 67.9473 1139.83 67.6074C1139.28 67.2676 1138.85 66.7832 1138.54 66.1543C1138.24 65.5215 1138.08 64.7949 1138.08 63.9746V63.5527C1138.08 62.7129 1138.23 61.9746 1138.53 61.3379C1138.84 60.6973 1139.26 60.207 1139.81 59.8672C1140.37 59.5234 1141 59.3516 1141.71 59.3516C1142.42 59.3516 1143.06 59.5234 1143.61 59.8672C1144.16 60.207 1144.59 60.6973 1144.89 61.3379C1145.19 61.9746 1145.35 62.7109 1145.35 63.5469V63.9277ZM1143.56 63.541C1143.56 62.6465 1143.4 61.9668 1143.08 61.502C1142.76 61.0371 1142.31 60.8047 1141.71 60.8047C1141.12 60.8047 1140.67 61.0352 1140.35 61.4961C1140.03 61.9531 1139.87 62.625 1139.86 63.5117V63.9277C1139.86 64.7988 1140.02 65.4746 1140.34 65.9551C1140.66 66.4355 1141.12 66.6758 1141.72 66.6758C1142.31 66.6758 1142.77 66.4453 1143.08 65.9844C1143.4 65.5195 1143.56 64.8438 1143.56 63.957V63.541ZM1148.17 61.6602L1148.22 62.3926C1148.68 61.8262 1149.28 61.543 1150.05 61.543C1150.72 61.543 1151.22 61.7402 1151.55 62.1348C1151.87 62.5293 1152.04 63.1191 1152.05 63.9043V68H1150.36V63.9453C1150.36 63.5859 1150.28 63.3262 1150.12 63.166C1149.97 63.002 1149.71 62.9199 1149.34 62.9199C1148.87 62.9199 1148.51 63.123 1148.27 63.5293V68H1146.58V61.6602H1148.17ZM1153.17 64.7715C1153.17 64.1426 1153.3 63.582 1153.54 63.0898C1153.78 62.5977 1154.13 62.2168 1154.58 61.9473C1155.04 61.6777 1155.57 61.543 1156.17 61.543C1157.02 61.543 1157.72 61.8047 1158.26 62.3281C1158.8 62.8516 1159.11 63.5625 1159.17 64.4609L1159.18 64.8945C1159.18 65.8672 1158.91 66.6484 1158.37 67.2383C1157.82 67.8242 1157.09 68.1172 1156.18 68.1172C1155.27 68.1172 1154.54 67.8242 1153.99 67.2383C1153.45 66.6523 1153.17 65.8555 1153.17 64.8477V64.7715ZM1154.87 64.8945C1154.87 65.4961 1154.98 65.957 1155.21 66.2773C1155.43 66.5938 1155.76 66.752 1156.18 66.752C1156.59 66.752 1156.91 66.5957 1157.14 66.2832C1157.37 65.9668 1157.49 65.4629 1157.49 64.7715C1157.49 64.1816 1157.37 63.7246 1157.14 63.4004C1156.91 63.0762 1156.59 62.9141 1156.17 62.9141C1155.76 62.9141 1155.43 63.0762 1155.21 63.4004C1154.98 63.7207 1154.87 64.2188 1154.87 64.8945ZM1162.12 61.6602V68.3457C1162.12 69.0449 1161.93 69.5879 1161.56 69.9746C1161.19 70.3652 1160.65 70.5605 1159.95 70.5605C1159.66 70.5605 1159.38 70.5273 1159.12 70.4609V69.1191C1159.32 69.1543 1159.5 69.1719 1159.65 69.1719C1160.16 69.1719 1160.42 68.9004 1160.42 68.3574V61.6602H1162.12ZM1160.28 60.0195C1160.28 59.7656 1160.37 59.5566 1160.53 59.3926C1160.71 59.2285 1160.94 59.1465 1161.23 59.1465C1161.52 59.1465 1161.76 59.2285 1161.92 59.3926C1162.1 59.5566 1162.18 59.7656 1162.18 60.0195C1162.18 60.2773 1162.09 60.4883 1161.92 60.6523C1161.75 60.8164 1161.52 60.8984 1161.23 60.8984C1160.95 60.8984 1160.72 60.8164 1160.54 60.6523C1160.37 60.4883 1160.28 60.2773 1160.28 60.0195ZM1165.33 68H1163.63V61.6602H1165.33V68ZM1163.53 60.0195C1163.53 59.7656 1163.61 59.5566 1163.78 59.3926C1163.95 59.2285 1164.19 59.1465 1164.48 59.1465C1164.77 59.1465 1165 59.2285 1165.17 59.3926C1165.34 59.5566 1165.43 59.7656 1165.43 60.0195C1165.43 60.2773 1165.34 60.4883 1165.16 60.6523C1164.99 60.8164 1164.76 60.8984 1164.48 60.8984C1164.19 60.8984 1163.96 60.8164 1163.79 60.6523C1163.62 60.4883 1163.53 60.2773 1163.53 60.0195ZM1169.75 68.1172C1168.82 68.1172 1168.06 67.832 1167.47 67.2617C1166.89 66.6914 1166.6 65.9316 1166.6 64.9824V64.8184C1166.6 64.1816 1166.72 63.6133 1166.97 63.1133C1167.22 62.6094 1167.56 62.2227 1168.01 61.9531C1168.47 61.6797 1168.98 61.543 1169.56 61.543C1170.43 61.543 1171.11 61.8164 1171.6 62.3633C1172.1 62.9102 1172.35 63.6855 1172.35 64.6895V65.3809H1168.32C1168.37 65.7949 1168.54 66.127 1168.81 66.377C1169.09 66.627 1169.44 66.752 1169.86 66.752C1170.51 66.752 1171.02 66.5156 1171.39 66.043L1172.22 66.9746C1171.97 67.334 1171.62 67.6152 1171.19 67.8184C1170.75 68.0176 1170.27 68.1172 1169.75 68.1172ZM1169.55 62.9141C1169.22 62.9141 1168.94 63.0273 1168.73 63.2539C1168.53 63.4805 1168.39 63.8047 1168.33 64.2266H1170.69V64.0918C1170.68 63.7168 1170.58 63.4277 1170.39 63.2246C1170.19 63.0176 1169.91 62.9141 1169.55 62.9141ZM1173.51 67.168C1173.51 66.8984 1173.6 66.6797 1173.78 66.5117C1173.96 66.3438 1174.19 66.2598 1174.46 66.2598C1174.74 66.2598 1174.97 66.3438 1175.15 66.5117C1175.33 66.6797 1175.42 66.8984 1175.42 67.168C1175.42 67.4336 1175.33 67.6504 1175.16 67.8184C1174.98 67.9824 1174.74 68.0645 1174.46 68.0645C1174.19 68.0645 1173.96 67.9824 1173.78 67.8184C1173.6 67.6504 1173.51 67.4336 1173.51 67.168ZM1179.65 66.752C1179.96 66.752 1180.22 66.666 1180.41 66.4941C1180.61 66.3223 1180.71 66.0938 1180.72 65.8086H1182.3C1182.3 66.2383 1182.18 66.6328 1181.95 66.9922C1181.72 67.3477 1181.41 67.625 1181 67.8242C1180.6 68.0195 1180.16 68.1172 1179.68 68.1172C1178.77 68.1172 1178.06 67.8301 1177.53 67.2559C1177.01 66.6777 1176.75 65.8809 1176.75 64.8652V64.7539C1176.75 63.7773 1177.01 62.998 1177.53 62.416C1178.05 61.834 1178.76 61.543 1179.67 61.543C1180.46 61.543 1181.09 61.7695 1181.57 62.2227C1182.05 62.6719 1182.3 63.2715 1182.3 64.0215H1180.72C1180.71 63.6934 1180.61 63.4277 1180.41 63.2246C1180.22 63.0176 1179.96 62.9141 1179.64 62.9141C1179.24 62.9141 1178.94 63.0586 1178.74 63.3477C1178.54 63.6328 1178.44 64.0977 1178.44 64.7422V64.918C1178.44 65.5703 1178.54 66.0391 1178.74 66.3242C1178.94 66.6094 1179.24 66.752 1179.65 66.752ZM1183.11 64.7715C1183.11 64.1426 1183.23 63.582 1183.47 63.0898C1183.71 62.5977 1184.06 62.2168 1184.51 61.9473C1184.97 61.6777 1185.5 61.543 1186.1 61.543C1186.96 61.543 1187.65 61.8047 1188.19 62.3281C1188.74 62.8516 1189.04 63.5625 1189.1 64.4609L1189.11 64.8945C1189.11 65.8672 1188.84 66.6484 1188.3 67.2383C1187.76 67.8242 1187.03 68.1172 1186.11 68.1172C1185.2 68.1172 1184.47 67.8242 1183.92 67.2383C1183.38 66.6523 1183.11 65.8555 1183.11 64.8477V64.7715ZM1184.8 64.8945C1184.8 65.4961 1184.91 65.957 1185.14 66.2773C1185.37 66.5938 1185.69 66.752 1186.11 66.752C1186.52 66.752 1186.84 66.5957 1187.07 66.2832C1187.3 65.9668 1187.42 65.4629 1187.42 64.7715C1187.42 64.1816 1187.3 63.7246 1187.07 63.4004C1186.84 63.0762 1186.52 62.9141 1186.1 62.9141C1185.69 62.9141 1185.37 63.0762 1185.14 63.4004C1184.91 63.7207 1184.8 64.2188 1184.8 64.8945ZM1191.84 61.6602L1191.9 62.3691C1192.35 61.8184 1192.95 61.543 1193.72 61.543C1194.54 61.543 1195.1 61.8652 1195.4 62.5098C1195.85 61.8652 1196.48 61.543 1197.3 61.543C1197.99 61.543 1198.5 61.7441 1198.84 62.1465C1199.18 62.5449 1199.34 63.1465 1199.34 63.9512V68H1197.64V63.957C1197.64 63.5977 1197.57 63.3359 1197.43 63.1719C1197.29 63.0039 1197.04 62.9199 1196.69 62.9199C1196.18 62.9199 1195.83 63.1621 1195.63 63.6465L1195.64 68H1193.95V63.9629C1193.95 63.5957 1193.88 63.3301 1193.73 63.166C1193.59 63.002 1193.34 62.9199 1192.99 62.9199C1192.51 62.9199 1192.16 63.1191 1191.95 63.5176V68H1190.26V61.6602H1191.84Z" fill="#5C5C5C"/>
</svg>
